<?xml version="1.0" encoding="UTF-8"?>
<svg width="120px" height="120px" viewBox="0 0 120 120" version="1.1" xmlns="http://www.w3.org/2000/svg" xmlns:xlink="http://www.w3.org/1999/xlink">
    <!-- Generator: Sketch 51.1 (57501) - http://www.bohemiancoding.com/sketch -->
    <title>simbolo</title>
    <desc>Created with Sketch.</desc>
    <defs></defs>
    <g id="Symbols" stroke="none" stroke-width="1" fill="none" fill-rule="evenodd">
        <g id="Footer" transform="translate(-660.000000, -16.000000)" fill-rule="nonzero">
            <g id="simbolo" transform="translate(660.000000, 15.000000)">
                <g id="sello" transform="translate(0.000000, 0.987294)">
                    <g id="Fill-63-Clipped">
                        <path d="M59.9936471,0.705882353 C27.3021177,0.705882353 0.705882353,27.3021177 0.705882353,59.9936471 C0.705882353,92.6851765 27.3021177,119.281412 59.9936471,119.281412 C92.6851765,119.281412 119.281412,92.6851765 119.281412,59.9936471 C119.281412,27.3021177 92.6851765,0.705882353 59.9936471,0.705882353 M59.9936471,119.987294 C26.9131765,119.987294 0,93.0741177 0,59.9936471 C0,26.9131765 26.9131765,0 59.9936471,0 C93.0741177,0 119.987294,26.9131765 119.987294,59.9936471 C119.987294,93.0741177 93.0741177,119.987294 59.9936471,119.987294" id="Fill-63" fill="#000000"></path>
                        <g id="Group-3" transform="translate(44.000000, 44.000000)" fill="#6BB7A6">
                            <path d="M27.7384235,2.3542827 C27.4800706,1.7987533 26.7741882,0.4879298 25.5537176,1.7211062 C21.8104235,4.8679298 11.8412471,14.7234592 15.6713647,27.7681651 C15.9297176,28.6900474 16.5523059,28.4500474 16.7421882,28.2869886 C19.8120706,25.7796945 22.9108941,17.1044004 23.8956,13.2919298 C24.1038353,12.4844004 24.3925412,12.1286356 24.4807765,13.110518 C24.7031294,15.5966356 24.3572471,21.1702827 19.1351294,29.5314592 C18.9897176,29.7629886 18.9974824,30.1540474 19.5163059,29.9733415 C23.1438353,28.7084004 37.0737176,22.3956945 27.7384235,2.3542827" id="Fill-59"></path>
                            <path d="M16.3747059,10.9334356 C16.4834118,10.7047298 16.6951765,10.2134356 16.3690588,9.791318 C16.2645882,9.6564945 16.1558824,9.5223768 16.0436471,9.3889651 C13.6238824,6.4870827 9.5438824,3.6988474 3.2332941,1.1696709 C2.6650588,0.8484945 2.1342353,0.9254356 1.8525882,1.8720239 C0.8572941,5.6774356 -1.7029412,18.2732004 5.8274118,25.0948474 C8.3043529,27.3388474 11.2267059,28.4534356 12.6441176,28.8967298 C13.4438824,29.2037886 13.5370588,28.7068474 13.5434118,28.4767298 C13.6796471,23.6915533 10.5003529,14.6082592 7.782,9.6981415 C7.3288235,8.8779062 7.0210588,8.0604945 7.8554118,8.927318 C9.3067059,10.4350827 11.6347059,13.2536709 13.4989412,17.3795533 C13.6358824,17.6830827 14.0107059,17.6661415 14.0770588,17.3484945 C14.4949412,15.3317886 15.2092941,13.4407298 16.1050588,11.5052004 C16.1932941,11.315318 16.2829412,11.1247298 16.3747059,10.9334356" id="Fill-61"></path>
                        </g>
                    </g>
                    <g id="Group-4" transform="translate(10.000000, 12.000000)" fill="#414042">
                        <path d="M3.45613287,56.6277506 C3.59258178,57.2874725 4.10585594,57.5476446 4.66154941,57.4098153 C5.23208972,57.2681146 5.53680207,56.8042959 5.40106016,56.1437997 L5.11260857,54.7461493 L3.16838829,55.2293259 L3.45613287,56.6277506 Z M0.954098193,57.4020721 C1.08347724,58.0292725 1.61442607,58.3746199 2.18496638,58.2329192 C2.74914374,58.092767 3.04678621,57.4322707 2.90892328,56.7632569 L2.61693676,55.3485715 L0.631711078,55.8418143 L0.954098193,57.4020721 Z M5.37631552,54.0043493 C5.45549828,53.984217 5.54104401,54.0353221 5.5608397,54.1297894 L5.94826974,56.0082934 C6.16460843,57.0544017 5.68385579,57.9216419 4.85243656,58.1283857 C4.24018394,58.2809271 3.70570008,57.9541633 3.4080576,57.60417 C3.32675392,58.1020587 3.05668401,58.7733955 2.32636415,58.9545867 C1.43767877,59.1760428 0.635953019,58.5728462 0.407595513,57.4663408 L0.00390471295,55.511179 C-0.0158909783,55.4167117 0.0420821819,55.3307621 0.121264947,55.3106297 L5.37631552,54.0043493 Z" id="Fill-1"></path>
                        <path d="M7.65211033,61.0107228 C7.73576688,60.9763046 7.83878841,61.027932 7.8689977,61.1200006 L7.99060949,61.4865542 C8.0215934,61.5786228 7.97279374,61.6913424 7.88991181,61.7257606 L2.34689154,63.9896163 C2.26323499,64.023174 2.16021357,63.9724073 2.13000428,63.8803387 L2.009167,63.513785 C1.97895771,63.4217164 2.02620813,63.3089969 2.10986468,63.2745787 L7.65211033,61.0107228 Z" id="Fill-3"></path>
                        <path d="M9.20158812,65.0192654 C9.27864422,64.9783295 9.37911928,65.0033459 9.42293552,65.0874917 L10.9814329,68.0940008 C11.0252492,68.1781466 10.9874765,68.2751797 10.9104204,68.3161155 L10.6860512,68.4321004 C10.6082396,68.4730362 10.5077645,68.4480199 10.4647037,68.363874 L9.13510829,65.8000783 L7.25101106,66.7825381 L8.3864554,68.972605 C8.42724976,69.048412 8.39249906,69.1537838 8.31468749,69.1939616 L8.09182915,69.3114626 C8.00646308,69.3554307 7.90976517,69.3190433 7.86897081,69.2424782 L6.73352647,67.0524115 L4.76481865,68.0795974 L6.09516955,70.6426351 C6.13823031,70.7267809 6.10045774,70.824572 6.02340163,70.8639917 L5.79903235,70.9807346 C5.72197625,71.0216705 5.62074573,70.9966541 5.57768496,70.9125083 L4.01843207,67.9059992 C3.97461593,67.8218533 4.01314398,67.7248203 4.08944461,67.6846425 L9.20158812,65.0192654 Z" id="Fill-5"></path>
                        <path d="M12.3230346,71.0274789 C12.3864511,70.9791372 12.4801975,70.9973529 12.5270706,71.0604072 L12.6456322,71.2187436 L11.2097971,76.8151648 C11.2146222,76.8214702 11.2146222,76.8214702 11.2194474,76.8277756 L14.5977613,74.2341413 C14.6618672,74.185099 14.7549242,74.1928056 14.8073119,74.2621654 L14.9727465,74.4835561 C15.0189305,74.5473111 15.0051442,74.648198 14.9410382,74.6965396 L10.6762702,77.9725618 C10.6128537,78.0209034 10.5204859,78.0026878 10.4722342,77.9389329 L10.3874489,77.825435 L11.8549924,72.124624 L11.8494778,72.1183186 L8.40292213,74.7658994 C8.33950558,74.814241 8.24438061,74.807235 8.19268226,74.7378752 L8.02793688,74.5157839 C7.98037439,74.452029 7.99553932,74.351142 8.05826664,74.3028005 L12.3230346,71.0274789 Z" id="Fill-7"></path>
                        <path d="M18.5563468,78.053524 C18.6088515,77.9893448 18.7024173,77.9785195 18.7629996,78.0450183 L20.9547302,80.4150068 C21.0159855,80.4815057 21.0126198,80.5874398 20.9594421,80.6531654 L20.805294,80.8402902 C20.7527893,80.9052426 20.6605698,80.9160679 20.5993144,80.8495691 L18.7300159,78.828313 L17.4335562,80.4103673 L19.0309077,82.1377913 C19.0861048,82.1973309 19.0887974,82.3102243 19.0362927,82.3744035 L18.8814715,82.5630747 C18.8229086,82.6342129 18.7306891,82.6318932 18.6754919,82.5715804 L17.0781404,80.8449297 L15.7237909,82.4988955 L17.5937625,84.5201516 C17.6543447,84.5866505 17.6509791,84.6925847 17.5978013,84.7575371 L17.4443263,84.9462083 C17.3911486,85.0111606 17.2989289,85.0212128 17.2376736,84.9547139 L15.0452699,82.5839522 C14.9840145,82.5182266 14.9873802,82.4115191 15.0405579,82.34734 L18.5563468,78.053524 Z" id="Fill-9"></path>
                        <path d="M21.1268841,86.713966 C21.1839444,86.6956551 21.2470465,86.6689517 21.3041068,86.6506407 C21.4235978,86.6056265 21.5289916,86.6025746 21.5632278,86.7582173 C21.5806816,86.8360387 21.7310523,87.7012296 22.2889011,88.1399281 C22.7970737,88.5389528 23.3535798,88.4313766 23.6133722,88.0041222 C23.9167989,87.5059131 23.7207798,86.91386 23.2105933,85.9998406 C22.7319578,85.1109985 22.5151285,84.4609614 23.0165881,83.6362076 C23.3159871,83.1448648 24.137656,82.6153745 25.1352048,83.3989287 C25.7501139,83.8818789 25.9823831,84.6097375 25.9823831,84.6097375 C26.007221,84.6608555 26.0300452,84.8065798 25.8702762,84.8851641 C25.8199289,84.9088156 25.7642112,84.9393338 25.7125212,84.9637483 C25.5943728,85.020207 25.513817,84.9996072 25.4534002,84.8561718 C25.4272196,84.7920836 25.2171032,84.1786682 24.8344634,83.8780642 C24.1692069,83.3562032 23.6697612,83.6903773 23.4858255,83.9940332 C23.1904544,84.4785093 23.3388113,85.0118145 23.712053,85.6786367 C24.3168926,86.7406693 24.637773,87.5379572 24.1282578,88.3772065 C23.6704325,89.1287165 22.7151754,89.1905164 21.9821178,88.614486 C21.2416761,88.0331139 21.0436431,87.1404576 21.0147774,86.9893926 C20.995981,86.899364 20.9677865,86.7925503 21.1268841,86.713966" id="Fill-11"></path>
                        <path d="M30.0581098,87.1368047 L28.9134046,86.5078906 C28.8415775,86.4680499 28.8189293,86.3734281 28.8525781,86.3001497 L28.9489948,86.0867173 C28.9826434,86.0134388 29.064177,85.976444 29.1372984,86.0162847 L31.9236749,87.5487288 C31.9955022,87.5885701 32.0181504,87.683903 31.9851487,87.7571816 L31.888732,87.9699027 C31.8550833,88.0431813 31.7722556,88.0801753 31.7004283,88.040335 L30.5570174,87.4114209 L28.513502,91.9141324 C28.4805003,91.9881226 28.3912017,92.0215609 28.3251984,91.9852773 L28.0760681,91.8479685 C28.0100648,91.811685 27.9802986,91.7135068 28.0139473,91.6395167 L30.0581098,87.1368047 Z" id="Fill-13"></path>
                        <path d="M36.2015618,92.8585515 C36.1026969,91.9376447 36.0151308,91.0113416 35.9183844,90.0904347 L35.857653,90.071545 L33.9149568,92.1461139 L36.2015618,92.8585515 Z M32.0442909,93.2964031 L36.063857,89.0487652 C36.1019907,89.0116587 36.1535417,88.986697 36.2213348,89.007611 L36.297602,89.0318989 C36.3661013,89.0528129 36.3922299,89.1020634 36.3985855,89.1533372 L36.998837,94.8400176 C37.0115482,94.9499868 36.9183327,95.0268971 36.8039317,94.991141 L36.4988628,94.8960138 C36.4303636,94.8750998 36.3992917,94.8164045 36.396467,94.7745755 L36.2502881,93.380061 L33.5442133,92.5380888 L32.5703936,93.5831321 C32.5421464,93.6155163 32.4821213,93.6452004 32.4136221,93.6236116 L32.1085531,93.5284854 C31.9941522,93.4934031 31.965905,93.3780367 32.0442909,93.2964031 Z" id="Fill-15"></path>
                        <path d="M43.8242954,94.1114876 C44.5011555,94.1981804 45.1756655,93.7715997 45.2822083,93.1276026 C45.3817005,92.5317661 44.8764056,91.9462517 44.1995454,91.860247 L42.4909435,91.6421416 L42.1156936,93.8933822 L43.8242954,94.1114876 Z M41.865788,91.1295571 C41.8791058,91.051122 41.9613631,90.9891986 42.0577217,91.0015833 L44.3382077,91.2926206 C45.3950183,91.428163 46.1345507,92.2751302 45.9794369,93.2087903 C45.8587928,93.9305353 45.2211029,94.4665128 44.4102808,94.6426491 L45.2845585,96.7899961 C45.3292125,96.8993939 45.2461717,97.0177346 45.0973252,96.9977823 L44.6484353,96.9406759 C44.5685282,96.9310428 44.5309249,96.8856329 44.5191738,96.8519196 L43.6942505,94.6233839 L42.0122843,94.4087182 L41.6801215,96.4102025 C41.6668037,96.4879504 41.5751454,96.5484976 41.4881877,96.5374892 L41.1434905,96.4934546 C41.0471318,96.4810699 40.98916,96.4019467 41.0016946,96.3235107 L41.865788,91.1295571 Z" id="Fill-17"></path>
                        <path d="M54.3759642,96.2194859 C54.4128276,96.1658458 54.4489388,96.1027818 54.4858022,96.0491418 C54.5587769,95.9324377 54.6445408,95.857051 54.7746914,95.9440355 C54.8393905,95.9882528 55.5217408,96.5058101 56.2778179,96.4296983 C56.9654344,96.3593855 57.3694278,95.8903954 57.3160134,95.4003827 C57.2535712,94.8277354 56.7073901,94.5392372 55.6880025,94.2398653 C54.7099923,93.9361454 54.1096444,93.6201018 54.0065773,92.6734218 C53.9448874,92.1094723 54.3037419,91.1497445 55.653396,91.0127438 C56.485457,90.9286592 57.150504,91.2881941 57.150504,91.2881941 C57.205423,91.3084908 57.317518,91.3976503 57.2332587,91.5658194 C57.2046706,91.6187356 57.176835,91.6803495 57.1482471,91.7339896 C57.0850525,91.8572175 57.0030501,91.8999848 56.8601101,91.8383708 C56.7961633,91.8108263 56.2236512,91.5172533 55.7060581,91.5694444 C54.8055363,91.6607778 54.5956403,92.2529968 54.6340084,92.6016589 C54.6941936,93.1576346 55.1628862,93.4374349 55.9069264,93.6556202 C57.1031081,93.9955844 57.8870209,94.3442465 57.9923451,95.3068743 C58.0856322,96.1701947 57.3145088,96.8856416 56.3222045,96.9863989 C55.3201202,97.0886052 54.578337,96.5840957 54.4572143,96.4963862 C54.382735,96.445645 54.2917049,96.3869311 54.3759642,96.2194859" id="Fill-19"></path>
                        <path d="M64.1799892,93.273072 C63.5771127,92.550547 62.9777169,91.8178459 62.3748403,91.0960004 L62.3142741,91.1116039 L61.8910074,93.8802643 L64.1799892,93.273072 Z M61.0027043,95.8320981 L61.9049307,90.1434888 C61.9153731,90.0919284 61.9432196,90.0437598 62.0121397,90.0261206 L62.0880213,90.0057683 C62.1569414,89.9874506 62.2049766,90.0152659 62.2404809,90.053936 L65.9614688,94.5173067 C66.0345658,94.6034669 66.0004539,94.7174433 65.8862833,94.7479719 L65.5813641,94.8287047 C65.512444,94.8470224 65.4539664,94.8137797 65.4282084,94.780537 L64.5162357,93.6862336 L61.808164,94.4040098 L61.5986192,95.7954637 C61.5937461,95.8368479 61.5596341,95.8945142 61.4921063,95.9128309 L61.1864911,95.9935637 C61.0716243,96.0240932 60.9832116,95.9420033 61.0027043,95.8320981 Z" id="Fill-21"></path>
                        <path d="M68.0135273,88.3207333 C67.9805978,88.2514523 68.0086229,88.1643572 68.0884946,88.1300467 L68.372249,88.0112797 C68.4444138,87.9802679 68.5396992,88.0158983 68.5726288,88.0851792 L70.5995468,92.3449465 L72.6909227,91.464093 C72.7707942,91.4297825 72.8583728,91.4680526 72.8913023,91.5373326 L72.9865878,91.7385761 C73.0195174,91.8078571 72.9907916,91.8949523 72.9116206,91.9286028 L70.3991671,92.9876072 C70.3199961,93.0212578 70.2317169,92.9829877 70.1987873,92.9137077 L68.0135273,88.3207333 Z" id="Fill-23"></path>
                        <path d="M73.0237208,85.2707925 C72.9788092,85.2056264 72.9998162,85.1102285 73.0686323,85.0685759 L73.3308577,84.9100272 C73.4069175,84.8643437 73.5025356,84.8898728 73.5488958,84.9543671 L75.44677,87.6597701 C75.9654257,88.3994402 76.8600343,88.6809314 77.6655443,88.1945364 C78.4790223,87.7034388 78.5804355,86.8394831 78.0610554,86.0998136 L76.1544888,83.3816457 C76.1088528,83.3171513 76.1233404,83.2251125 76.1994003,83.179429 L76.4609012,83.0215522 C76.5304416,82.9798996 76.6325791,83.0007259 76.6789394,83.0658921 L78.6028912,85.809589 C79.2946736,86.795815 79.0780841,87.9976938 77.9886175,88.6554019 C76.9063945,89.3077356 75.6416281,89.0007158 74.9491213,88.0144891 L73.0237208,85.2707925 Z" id="Fill-25"></path>
                        <path d="M84.6750082,82.4564234 C85.611824,81.5808621 85.6540293,80.2709564 84.7531915,79.3197972 C83.8571971,78.3748231 82.5391511,78.3356498 81.6016434,79.2118983 L80.7437028,80.0132362 L83.8177595,83.2570741 L84.6750082,82.4564234 Z M80.0421287,80.1369419 C79.9874696,80.0792126 79.9847021,79.9843715 80.0414368,79.9307658 L81.3221208,78.7342569 C82.4249897,77.7040635 84.1844599,77.7652291 85.2333616,78.8717077 C86.2926415,79.9891823 86.246285,81.737556 85.1434162,82.7691239 L83.8620403,83.9649455 C83.8053055,84.017864 83.7105169,84.0089298 83.6558577,83.9512005 L80.0421287,80.1369419 Z" id="Fill-27"></path>
                        <path d="M90.7260577,74.5453936 C89.8096144,74.310503 88.8918014,74.0642833 87.9753582,73.8301479 L87.9383718,73.8845278 L89.3253653,76.6020082 L90.7260577,74.5453936 Z M89.8459159,78.9101294 L87.0191889,73.3059869 C86.9959011,73.2538729 86.9876819,73.1934509 87.0301479,73.1315183 L87.0767235,73.0635435 C87.1178195,73.001611 87.1732993,72.9933029 87.2253544,73.0038767 L92.8808636,74.4547605 C92.9918231,74.4819505 93.0363436,74.604305 92.9664802,74.7070225 L92.7788078,74.9811874 C92.7377116,75.04312 92.6712735,75.0529386 92.6301773,75.040099 L91.2431835,74.6843643 L89.5856406,77.1178612 L90.2856442,78.4811331 C90.3082471,78.5211626 90.3178362,78.5944243 90.2760552,78.6556017 L90.0890679,78.9297666 C90.0198895,79.032484 89.9000258,79.0196443 89.8459159,78.9101294 Z" id="Fill-29"></path>
                        <path d="M95.3214432,69.0741893 C95.5866348,68.5779169 95.3930795,68.0180026 94.8868048,67.7573412 C94.3881073,67.4993879 93.7874667,67.7526019 93.5029892,68.2840804 L92.9037255,69.4059401 L94.6594982,70.3125003 L95.3214432,69.0741893 Z M93.0187562,68.0335746 C93.2991011,67.5095435 93.0690398,67.0173336 92.5772305,66.7641196 C92.0709559,66.5027811 91.5777688,66.6212636 91.2974238,67.1452946 L90.7050484,68.2542905 L92.4263807,69.1418935 L93.0187562,68.0335746 Z M90.0816771,68.5826563 C90.0114186,68.546773 89.9769782,68.4594345 90.0169292,68.3849597 L90.8131918,66.8947888 C91.2560953,66.0647345 92.1136623,65.7871469 92.8506872,66.1676449 C93.3920911,66.4465865 93.5994219,66.9970223 93.6187088,67.4140805 C93.9658686,67.1337848 94.5527327,66.8555203 95.1988354,67.1893024 C95.9861429,67.5948509 96.2313596,68.4946407 95.7629698,69.3714109 L94.9343327,70.9225158 C94.894382,70.9969904 94.801393,71.0193329 94.7318234,70.9827725 L90.0816771,68.5826563 Z" id="Fill-31"></path>
                        <path d="M93.0996984,61.2173502 C93.0271834,61.1905145 92.9808541,61.1057699 93.0077113,61.0224378 L93.1070845,60.7279506 C93.1312565,60.6516805 93.2198858,60.6078959 93.2930723,60.6347317 L97.7789467,62.2801876 L98.5034278,60.1015474 C98.5309575,60.0182153 98.61623,59.9814927 98.6894166,60.0090346 L98.901591,60.0860109 C98.974106,60.1128467 99.0197637,60.1975912 98.9915634,60.2809233 L98.1213799,62.8981164 C98.0938511,62.9814485 98.0085786,63.0181712 97.9353921,62.9913354 L93.0996984,61.2173502 Z" id="Fill-33"></path>
                        <path d="M95.1210965,55.8364971 C95.0445051,55.8189656 94.9863779,55.7321047 95.0027901,55.6348843 L95.5867982,52.1389335 C95.6025265,52.0409162 95.6839046,51.985134 95.7618629,52.0034624 L95.9854822,52.0536664 C96.0627575,52.0719949 96.1208847,52.1588558 96.1037885,52.2560762 L95.6066293,55.2380338 L97.4933711,55.6651661 L97.9187248,53.1183097 C97.9324021,53.0298551 98.0158321,52.9653071 98.0931065,52.9828387 L98.3167258,53.0338396 C98.4022067,53.0529649 98.4507604,53.1469978 98.4357151,53.2354524 L98.0110454,55.7823087 L99.9812162,56.2293633 L100.479058,53.2474058 C100.495471,53.1493884 100.576849,53.0944032 100.654124,53.1127315 L100.878426,53.1629355 C100.955018,53.180467 101.013145,53.2673279 100.997417,53.3645484 L100.413409,56.861296 C100.396996,56.9593134 100.316302,57.0142986 100.238343,56.9967671 L95.1210965,55.8364971 Z" id="Fill-35"></path>
                        <path d="M3.64281136,46 C3.98504586,41.8246173 4.78679769,37.8006123 6,34 L5.3232215,34 C4.12924588,37.8057563 3.33710744,41.8275566 3,46 L3.64281136,46 Z" id="Fill-37"></path>
                        <path d="M95,34 C96.2128203,37.8006123 97.0147436,41.8246173 97.3570512,46 L98,46 C97.6621794,41.8275566 96.8705124,37.8057563 95.6762813,34 L95,34 Z" id="Fill-39"></path>
                        <path d="M4.06670655,23.8723301 C3.98932386,23.8113043 3.97886678,23.6892527 4.03742659,23.607885 L4.18382618,23.403739 L9.51765084,22.4941638 L9.52322791,22.4854458 L6.74860739,20.3226619 C6.66983048,20.261636 6.64612769,20.1410375 6.71096173,20.0524047 L7.41228548,19.0745387 C7.47084529,18.9938974 7.59354209,18.9750085 7.672319,19.0360343 L12.9329438,23.1356613 C13.0110236,23.1959607 13.0207836,23.3187388 12.9629209,23.4001065 L12.8688068,23.5301497 C12.8520755,23.5548506 12.7809672,23.6013464 12.7537787,23.6049789 L7.34187427,24.404853 L7.33490278,24.4128445 L10.2517401,26.6853296 C10.3291227,26.7463554 10.3535227,26.865501 10.2886886,26.9555867 L9.59294206,27.9254613 C9.53438224,28.0061025 9.41168545,28.0249915 9.33430275,27.9639657 L4.06670655,23.8723301 Z" id="Fill-41"></path>
                        <path d="M19.5676873,14.4487559 L17.9672345,13.5789637 L17.9601559,13.5856716 L18.3799121,15.424384 L19.5676873,14.4487559 Z M17.6614425,18.8476534 L16.0036536,11.3020013 C15.9902044,11.2341769 16.0142714,11.1469741 16.0694839,11.1022546 L16.1473475,11.0389022 C16.2018522,10.9934375 16.2867943,10.9889655 16.3469617,11.0195238 L22.8952985,14.5463932 C23.0220039,14.614963 23.0375766,14.7737168 22.9207812,14.8691181 L22.0543706,15.5823924 C21.9135081,15.6979175 21.8144088,15.6994082 21.6282438,15.6002802 L20.8658874,15.1821539 L18.7402086,16.9284462 L18.9469013,17.8176167 C18.9808782,17.9480483 18.9681368,18.117982 18.8124095,18.2461776 L17.9530774,18.9519987 C17.835574,19.0481454 17.6940037,18.9929915 17.6614425,18.8476534 Z" id="Fill-43"></path>
                        <path d="M27.1325415,6.75003478 L25.7606598,7.376713 C25.6543767,7.42428015 25.5390481,7.37369289 25.4938212,7.27704858 L25.0174316,6.2290613 C24.974466,6.13317194 25.0121551,6.01161151 25.1169307,5.9632893 L29.3788094,4.0183215 C29.4843388,3.96999939 29.6004211,4.02209676 29.6441404,4.11798603 L30.1212839,5.1659733 C30.1642494,5.26186267 30.1273142,5.38342309 30.0217847,5.4317453 L28.6491493,6.05766857 L30.9836095,11.1919002 C31.0273288,11.2877894 30.9798406,11.4138802 30.885618,11.4576722 L29.7330866,11.9831759 C29.6366026,12.0277228 29.5114749,11.9801558 29.4677556,11.8835113 L27.1325415,6.75003478 Z" id="Fill-45"></path>
                        <path d="M37.0025718,1.27130036 C36.9858368,1.16638044 37.0527764,1.05537805 37.145153,1.03408994 L38.2777703,0.796119313 C38.3795184,0.774831205 38.4678786,0.853140966 38.4852829,0.958060997 L39.1774379,5.19515611 C39.2972597,5.92731519 39.8716011,6.41161973 40.5262699,6.27476759 C41.1889715,6.13411401 41.5812373,5.44529136 41.4614155,4.71313228 L40.7692605,0.476797584 C40.7525256,0.371877553 40.810763,0.262395777 40.9125111,0.241867978 L42.0444591,0.00313704329 C42.137505,-0.0166305549 42.2345674,0.059398495 42.2519716,0.164318418 L42.9575146,4.48504535 C43.2179094,6.07405112 42.2546492,7.64100837 40.7993833,7.94816549 C39.3541583,8.25304167 37.9678401,7.18027276 37.7087841,5.59126709 L37.0025718,1.27130036 Z" id="Fill-47"></path>
                        <path d="M54.509054,3.04793346 C54.9371263,3.07849436 55.335211,2.74504096 55.3696967,2.34707002 C55.404932,1.94977822 55.0668225,1.60138394 54.6387502,1.57014389 L53.0906429,1.45876638 L52.9616965,2.9358768 L54.509054,3.04793346 Z M51.5530312,0.165700503 C51.5605281,0.07130121 51.6519902,-0.00815711067 51.7674422,0.000671623694 L54.8943941,0.225464006 C56.1486233,0.316467654 57.0924815,1.30867837 56.9927729,2.43603622 C56.9170543,3.30736154 56.216845,3.96204406 55.2782347,4.22826352 L56.498728,6.7369743 C56.5617018,6.86668843 56.4754876,7.01270164 56.2978114,6.99911896 L54.9071388,6.89928668 C54.8231736,6.89249539 54.7646979,6.84156052 54.7467053,6.80149174 L53.5771909,4.19226953 L52.8552406,4.13861817 L52.6430787,6.55496719 C52.6348321,6.64936639 52.5328744,6.72814566 52.4286677,6.71999607 L51.1841844,6.63035072 C51.0687323,6.62220113 50.9930137,6.53119758 51.0005106,6.43611914 L51.5530312,0.165700503 Z" id="Fill-49"></path>
                        <path d="M66.2685748,2.13182239 C66.302861,2.0368352 66.4310258,1.97799986 66.5404148,2.00777192 L67.8490025,2.36291078 C67.9575753,2.39339172 68.0253312,2.50397392 67.9910452,2.59966999 L65.7322416,8.86882709 C65.6979554,8.96381428 65.5697906,9.02194084 65.4604015,8.99216868 L64.1509975,8.63632105 C64.0424247,8.60654889 63.9746688,8.49525791 64.0089548,8.40027072 L66.2685748,2.13182239 Z" id="Fill-51"></path>
                        <path d="M75.5963612,7.12883217 L74.3613936,6.38875818 C74.2667763,6.33112943 74.2406507,6.20677274 74.2886654,6.11426355 L74.8147093,5.10348627 C74.862724,5.01097707 74.9756999,4.96927201 75.0703173,5.02538418 L78.904436,7.32446643 C78.9983473,7.38133689 79.0244729,7.50645187 78.9764582,7.59820277 L78.4511204,8.60973834 C78.4031057,8.70224765 78.2901298,8.7439526 78.1955124,8.68708214 L76.961251,7.94624985 L74.3861071,12.8985277 C74.3380924,12.9910369 74.2166433,13.0281923 74.1304991,12.9766297 L73.0939454,12.3556045 C73.0078014,12.3032837 72.9739086,12.1728609 73.0219233,12.0803516 L75.5963612,7.12883217 Z" id="Fill-53"></path>
                        <path d="M84.4055662,18.3198781 L84.9356246,16.4789037 L84.9287763,16.4713058 L83.3310679,17.2288177 L84.4055662,18.3198781 Z M80.1130516,17.049507 L86.6819411,14.0133809 C86.7422062,13.987548 86.823701,13.9989448 86.8736936,14.0490911 L86.9442311,14.1212712 C86.9935388,14.1706576 87.0113444,14.2610728 86.992854,14.329454 L84.8541298,21.8582262 C84.8123552,22.0033463 84.671965,22.0481741 84.5658163,21.9402837 L83.7803164,21.1440224 C83.652938,21.0140981 83.6351323,20.9100066 83.6940277,20.6957455 L83.950839,19.8181866 L82.0257818,17.8655228 L81.2532935,18.2355412 C81.1409814,18.2940452 80.985525,18.3092409 80.8437652,18.1641208 L80.0651134,17.3754574 C79.9596496,17.2675671 79.9870428,17.1080109 80.1130516,17.049507 Z" id="Fill-55"></path>
                        <path d="M89.2347763,25.5331347 L90.1628178,25.4690799 C90.3119176,25.4649913 90.3976147,25.6264913 90.3948283,25.707582 C90.4004021,25.7505124 90.3565078,26.6023054 90.711839,27.12701 C90.9278252,27.4459214 91.2866396,27.5447293 91.5716014,27.3593792 C91.9129988,27.1385944 91.9847609,26.6922548 91.8377514,26.008776 C91.6517257,25.1467614 91.6154957,23.933808 92.5909145,23.3027997 C93.3963319,22.7808208 94.6232699,22.8666816 95.453073,24.0925822 C96.0132418,24.9191623 96.012545,25.8343288 95.9951268,26.1893561 C96.0027911,26.320873 95.845331,26.3999195 95.7672973,26.4053709 L94.866428,26.4053709 C94.7396231,26.4074152 94.5696218,26.3120144 94.577983,26.2029849 C94.5696218,26.1055397 94.6239668,25.2353478 94.2958075,24.7494851 C94.1014206,24.4632826 93.761417,24.3746961 93.5419486,24.5164345 C93.2409614,24.7120062 93.174773,25.0983796 93.3398974,25.8949765 C93.5078082,26.6786262 93.6792032,27.9856175 92.5727995,28.7018052 C91.7353331,29.244227 90.4101559,29.0834085 89.6193701,27.9147483 C88.9198553,26.8803307 88.9707164,26.0230861 89.0341187,25.7198478 C89.0619878,25.586968 89.0780125,25.5426749 89.2347763,25.5331347" id="Fill-57"></path>
                    </g>
                </g>
            </g>
        </g>
    </g>
</svg>